<?xml version="1.0" encoding="UTF-8"?>
<svg id="Layer_1" data-name="Layer 1" xmlns="http://www.w3.org/2000/svg" viewBox="0 0 359.21 49.4">
  <defs>
    <style>
      .cls-1 {
        fill: #0d1527;
      }

      .cls-2 {
        fill: #d87a08;
      }

      .cls-3 {
        fill: #d87908;
      }

      .cls-4 {
        fill: #f6c775;
      }

      .cls-5 {
        fill: #f2ad38;
      }
    </style>
  </defs>
  <g>
    <path class="cls-1" d="M.2,49.4c-.14-5.31-.2-13.24-.2-23.81S.07,7.08,.2,1.77H15.79V41.51h.27c.73-2.22,1.6-3.66,2.62-4.32,1.02-.66,2.55-.99,4.59-.99h9.59c8.48,0,15.9,.07,22.25,.2v13H.2Z"/>
    <path class="cls-1" d="M58.51,10.68c-.14-1.9-.2-3.7-.2-5.38s.07-3.49,.2-5.31h14.42c.14,2.59,.2,4.35,.2,5.31,0,1.09-.07,2.88-.2,5.38h-14.42Zm0,38.72c-.14-3.76-.2-9.43-.2-17.01s.07-13.24,.2-17.01h14.42c.14,3.77,.2,9.44,.2,17.01s-.07,13.25-.2,17.01h-14.42Z"/>
    <path class="cls-1" d="M114.38,49.3c-9.89,.18-21.21,.11-33.95-.2v-9.73c3.13-.23,7.78-.34,13.95-.34h15.51c2.27,0,3.4-.82,3.4-2.45v-1.84h-23.88c-3.99,0-7.09-1-9.29-2.99-2.2-2-3.37-4.22-3.5-6.67-.27-5.26-.25-13.06,.07-23.41,13.56-.18,23.02-.18,28.37,0,4.49,.18,7.28,1.81,8.37,4.9h.27l1.63-4.9h12.32c.14,5.31,.2,13.02,.2,23.13,0,7.76-.07,12.63-.2,14.63-.23,3.49-1.46,5.99-3.71,7.48-2.25,1.5-5.43,2.29-9.56,2.38Zm-1.7-21.03h.27V14.94c0-.82-.27-1.52-.82-2.11-.54-.59-1.34-.88-2.38-.88h-18.3v10.27c0,.82,.26,1.47,.78,1.97,.52,.5,1.3,.75,2.35,.75h13.61c1.13,0,2.03,.22,2.69,.65,.66,.43,1.26,1.33,1.8,2.69Z"/>
    <path class="cls-1" d="M131.25,49.4c-.14-3.76-.2-22.91-.2-30.48s.07-13.24,.2-17.01h13.4l.95,5.58h.27c.5-1.86,1.35-3.23,2.55-4.12,1.2-.88,2.89-1.37,5.07-1.46,2.72-.18,6.51-.18,11.36,0,4.4,.14,7.64,2.09,9.73,5.85,1.36-3.67,4.58-5.62,9.66-5.85,5.22-.18,13-.18,23.34,0,.32,10.39,.27,35.2-.14,47.49h-14.49V12.11h-13.27c-.73,0-1.4,.23-2.01,.68-.61,.45-.92,1.2-.92,2.25V49.4h-14.7V15.04c0-1.95-1.04-2.93-3.13-2.93h-10.14c-.73,0-1.39,.23-2.01,.68-.61,.45-.92,1.2-.92,2.25V49.4h-14.63Z"/>
    <path class="cls-1" d="M223.03,49.4c-7.68-.25-12.07-3.33-13.15-9.24-.26-1.14-.38-2.92-.38-5.33s.13-4.29,.38-5.62c.95-5.46,5.49-8.19,13.62-8.19h26.77c2.92,0,5.11,.4,6.57,1.19,1.46,.79,2.54,2.14,3.24,4.05h.38v-6.1c0-2.73-1.49-4.1-4.48-4.1h-21.72c-8.7,0-15.21-.16-19.53-.48V1.77h46.49c5.59,0,10.06,1.22,13.43,3.67,3.37,2.45,5.27,5.92,5.72,10.43,.57,6.54,.6,17.72,.1,33.53h-57.44Zm9.43-12.96h28.01v-3.14c0-1.14-.3-1.95-.91-2.43-.6-.48-1.64-.71-3.1-.71h-23.81c-.76,0-1.43,.21-2,.62-.57,.41-.86,.94-.86,1.57v2c0,1.4,.89,2.1,2.67,2.1Z"/>
  </g>
  <g>
    <g>
      <path class="cls-5" d="M294.54,48.5c-2.05-1.01-3.58-2.55-4.57-4.6-1.09-2.27-1.15-4.64-.56-7.05,.7-2.86,2.23-5.21,4.37-7.19,1.01-.93,2.09-1.78,3.12-2.69,.48-.43,.94-.87,1.37-1.36,.34-.39,.57-.82,.7-1.32,.28-1.08,.47-2.18,.69-3.28,.41-1.96,.92-3.9,1.68-5.76,1.24-3.02,3.14-5.53,5.85-7.37,3.05-2.08,6.41-2.73,10.04-2.02,1.05,.21,2.07,.53,3.01,1.06,.29,.16,.57,.33,.76,.61,.2,.64,.26,1.31,.32,1.98,.11,1.12,.1,2.25-.03,3.37-.19,1.62-.65,3.14-1.52,4.53-.49,.79-1.09,1.49-1.73,2.15-1.37,1.39-2.95,2.55-4.5,3.73-.82,.63-1.65,1.25-2.42,1.94-.75,.68-1.47,1.4-1.94,2.32-.38,.73-.61,1.53-.84,2.32-.46,1.53-.77,3.09-1.07,4.65-.22,1.14-.46,2.29-.8,3.41-.53,1.73-1.33,3.31-2.46,4.73-1.38,1.72-3.08,3.03-5,4.08-.87,.48-1.77,.89-2.7,1.23-.48,.17-.95,.36-1.44,.51-.11,.03-.22,.05-.33,.05Z"/>
      <path class="cls-3" d="M294.54,48.5c.05-.07,.14-.05,.21-.07,.8-.25,1.58-.54,2.35-.86,1.42-.59,2.74-1.33,3.97-2.23,1.37-1,2.56-2.18,3.52-3.59,1-1.48,1.67-3.1,2.09-4.83,.25-1.03,.45-2.07,.66-3.11,.3-1.53,.63-3.06,1.12-4.55,.21-.63,.39-1.28,.72-1.87,.34-.61,.79-1.14,1.29-1.64,1.01-1.03,2.17-1.88,3.31-2.75,1.33-1.01,2.66-2.01,3.87-3.16,1.06-1.02,1.99-2.15,2.63-3.49,.33-.69,.56-1.41,.73-2.15,.3-1.34,.38-2.7,.31-4.07-.04-.74-.12-1.47-.26-2.19-.03-.14-.08-.28-.06-.43,.51,.79,.88,1.65,1.17,2.54,.56,1.72,.98,3.48,.94,5.3-.08,3.48-1.3,6.51-3.69,9.06-1.44,1.53-3.05,2.89-4.62,4.28-.56,.5-1.11,1.01-1.68,1.51-.35,.31-.55,.69-.63,1.15-.16,.93-.27,1.88-.45,2.81-.38,1.9-.71,3.8-1.31,5.64-.79,2.42-2.06,4.53-4.01,6.2-1.21,1.04-2.54,1.88-4.01,2.51-1.72,.73-3.51,1.05-5.38,.83-.98-.12-1.92-.36-2.79-.83Z"/>
      <path class="cls-4" d="M303.25,20.67c.07,.31,.07,.65,.02,.99-.1,.73-.27,1.45-.65,2.1-.19,.33-.44,.6-.86,.6-.48,0-.81-.32-.84-.81-.03-.66,.1-1.29,.26-1.92,.11-.45,.26-.88,.55-1.25,.23-.28,.52-.41,.88-.35,.35,.06,.52,.29,.63,.63Z"/>
      <path class="cls-4" d="M297.29,30.15c.1,.29,.02,.58-.1,.83-.38,.81-.93,1.47-1.68,1.95-.45,.29-.93,.23-1.26-.1-.24-.24-.28-.55-.16-.87,.12-.31,.32-.57,.52-.82,.4-.51,.8-1.02,1.4-1.33,.17-.09,.33-.19,.54-.19,.41,0,.62,.13,.74,.52Z"/>
      <path class="cls-2" d="M308.15,24.57c-.32,.11-.62,.09-.86-.19-.23-.28-.24-.6-.08-.9,.45-.87,1.07-1.57,1.94-2.03,.2-.1,.42-.15,.65-.14,.36,.01,.7,.35,.63,.77-.06,.39-.25,.72-.49,1.03-.42,.55-.9,1.02-1.51,1.36-.09,.05-.19,.08-.29,.11Z"/>
      <path class="cls-4" d="M293.32,35.65c.14,.48,.08,.93-.03,1.38-.12,.51-.32,1-.72,1.36-.26,.24-.57,.33-.9,.18-.3-.13-.45-.4-.49-.71-.08-.67,.07-1.3,.33-1.91,.11-.25,.25-.48,.45-.67,.5-.46,1.29-.26,1.36,.36Z"/>
      <path class="cls-2" d="M301.24,39.89c.1,.42,.04,.81-.13,1.16-.33,.72-.79,1.36-1.47,1.81-.32,.21-.65,.26-1,.06-.24-.14-.29-.25-.26-.53,.04-.37,.23-.68,.42-.97,.41-.62,.83-1.23,1.34-1.78,.38-.41,.94-.26,1.09,.26Z"/>
      <path class="cls-2" d="M314.05,19.87c-.31,.1-.56,.03-.77-.19-.23-.23-.24-.5-.15-.79,.13-.38,.38-.69,.62-1.01,.32-.42,.63-.85,1.06-1.17,.22-.16,.45-.25,.7-.12,.29,.15,.44,.4,.45,.73,.01,.3-.08,.57-.22,.82-.31,.56-.69,1.08-1.2,1.48-.15,.12-.3,.22-.48,.26Z"/>
      <path class="cls-2" d="M302.64,38.83c-.57,.12-.99-.27-.92-.85,.02-.2,.08-.39,.16-.56,.3-.62,.6-1.24,1.13-1.71,.16-.15,.35-.25,.57-.26,.36-.02,.68,.28,.71,.65,.03,.38-.08,.72-.23,1.05-.24,.53-.55,1.03-.97,1.44-.13,.12-.27,.21-.45,.25Z"/>
      <path class="cls-2" d="M304.62,29.51c.14,.42,.09,.84-.04,1.25-.17,.55-.45,1.03-.9,1.41-.34,.29-.77,.35-1.08,.14-.16-.11-.23-.26-.24-.46-.01-.37,.12-.72,.26-1.05,.2-.48,.39-.97,.66-1.42,.07-.11,.15-.22,.24-.32,.37-.36,.87-.25,1.04,.24,.02,.07,.04,.13,.06,.2Z"/>
      <path class="cls-2" d="M315.69,13.36c-.47,.14-.85-.16-.85-.64,0-.35,.15-.66,.27-.98,.2-.51,.42-1.02,.64-1.52,.11-.24,.26-.45,.54-.51,.37-.08,.65,.12,.76,.53,.13,.5,.1,1-.07,1.48-.2,.59-.49,1.13-1.01,1.5-.09,.07-.19,.12-.28,.13Z"/>
      <path class="cls-2" d="M300.85,36.3c.05,.17,0,.45-.12,.7-.3,.67-.71,1.26-1.33,1.69-.28,.19-.57,.3-.9,.15-.38-.17-.51-.53-.37-.94,.1-.3,.28-.54,.47-.79,.32-.44,.59-.91,1.01-1.27,.45-.4,1.05-.22,1.25,.47Z"/>
      <path class="cls-2" d="M320.05,9.12c.16,.77,.22,1.54-.08,2.3-.08,.21-.21,.38-.38,.52-.24,.2-.5,.19-.77,.06-.26-.12-.38-.36-.36-.63,.04-.73,.09-1.46,.11-2.19,0-.11,.04-.22,.07-.33,.08-.3,.3-.45,.59-.5,.29-.05,.5,.1,.63,.35,.07,.13,.16,.26,.19,.42Z"/>
      <path class="cls-2" d="M316.46,15.96c-.1-.34,.02-.66,.14-.97,.22-.56,.49-1.09,.89-1.55,.09-.11,.19-.2,.31-.28,.21-.13,.43-.2,.65-.07,.22,.12,.35,.32,.37,.59,.03,.37-.08,.71-.22,1.03-.19,.44-.41,.87-.73,1.23-.17,.2-.37,.38-.64,.45-.35,.1-.68-.08-.78-.44Z"/>
      <path class="cls-2" d="M296.08,43.53c.16-.06,.33-.06,.5-.06,.44,.02,.71,.34,.66,.78-.03,.28-.15,.52-.34,.72-.43,.46-.92,.8-1.57,.88-.29,.04-.54-.07-.7-.32-.16-.24-.17-.51-.03-.75,.34-.6,.85-1,1.48-1.25Z"/>
    </g>
    <path class="cls-5" d="M312.68,46.43c-2.1-1.93-3.39-4.3-3.85-7.11-.51-3.1,.26-5.94,1.81-8.62,1.84-3.17,4.49-5.45,7.75-7.06,1.54-.76,3.13-1.4,4.67-2.12,.72-.34,1.43-.72,2.11-1.14,.54-.34,.97-.78,1.3-1.33,.71-1.2,1.32-2.45,1.98-3.67,1.18-2.2,2.46-4.34,4.03-6.29,2.54-3.18,5.69-5.5,9.58-6.76,4.38-1.42,8.62-1.01,12.7,1.1,1.19,.62,2.29,1.36,3.23,2.32,.29,.29,.56,.59,.7,.99,.02,.84-.15,1.66-.31,2.47-.27,1.38-.67,2.72-1.22,4.01-.79,1.87-1.88,3.53-3.4,4.88-.86,.77-1.82,1.4-2.83,1.96-2.13,1.18-4.41,2.01-6.68,2.87-1.2,.46-2.41,.92-3.57,1.48-1.14,.55-2.25,1.16-3.13,2.09-.71,.75-1.26,1.62-1.82,2.48-1.08,1.67-2,3.42-2.92,5.18-.67,1.29-1.35,2.57-2.15,3.79-1.23,1.88-2.75,3.49-4.6,4.79-2.25,1.57-4.74,2.54-7.4,3.12-1.21,.27-2.43,.44-3.66,.52-.63,.04-1.26,.09-1.9,.1-.14,0-.28-.02-.41-.06Z"/>
    <path class="cls-3" d="M312.68,46.43c.09-.07,.18-.01,.27-.01,1.04-.02,2.08-.09,3.11-.2,1.9-.2,3.74-.63,5.53-1.27,1.99-.71,3.83-1.71,5.47-3.06,1.72-1.41,3.08-3.12,4.19-5.03,.66-1.14,1.27-2.32,1.88-3.49,.9-1.72,1.83-3.43,2.93-5.04,.47-.68,.92-1.39,1.52-1.98,.62-.61,1.35-1.09,2.11-1.51,1.57-.87,3.25-1.48,4.92-2.12,1.94-.74,3.88-1.46,5.73-2.42,1.63-.85,3.13-1.87,4.36-3.25,.63-.71,1.16-1.49,1.63-2.32,.83-1.5,1.41-3.09,1.8-4.76,.21-.89,.37-1.79,.46-2.71,.02-.18,0-.36,.08-.53,.33,1.13,.47,2.28,.51,3.45,.07,2.25-.05,4.5-.73,6.66-1.31,4.13-3.84,7.33-7.58,9.53-2.26,1.33-4.65,2.38-7.02,3.49-.85,.4-1.69,.82-2.54,1.21-.53,.25-.9,.63-1.15,1.15-.52,1.06-.98,2.15-1.53,3.2-1.12,2.13-2.18,4.29-3.54,6.29-1.79,2.62-4.05,4.69-6.97,6-1.81,.81-3.7,1.36-5.67,1.59-2.32,.27-4.56,.02-6.72-.9-1.13-.48-2.17-1.1-3.05-1.97Z"/>
    <path class="cls-4" d="M332.86,16.22c-.02,.4-.15,.8-.32,1.19-.38,.84-.84,1.64-1.51,2.29-.34,.33-.74,.57-1.24,.41-.58-.18-.86-.67-.72-1.26,.19-.79,.58-1.5,.99-2.2,.29-.49,.62-.97,1.1-1.3,.37-.25,.77-.31,1.18-.11,.4,.19,.52,.53,.52,.98Z"/>
    <path class="cls-4" d="M322.41,25.47c.02,.39-.18,.69-.42,.96-.73,.83-1.63,1.44-2.69,1.75-.64,.19-1.2-.05-1.47-.57-.2-.37-.14-.75,.12-1.09,.25-.33,.59-.56,.91-.8,.66-.47,1.32-.94,2.14-1.09,.23-.04,.46-.11,.72-.04,.5,.14,.7,.37,.7,.89Z"/>
    <path class="cls-2" d="M337.34,22.61c-.42,.02-.77-.11-.96-.52-.18-.42-.07-.8,.22-1.1,.84-.88,1.83-1.5,3.03-1.75,.27-.06,.55-.03,.82,.06,.43,.14,.72,.66,.49,1.14-.21,.45-.55,.77-.94,1.06-.69,.51-1.43,.91-2.28,1.1-.13,.03-.26,.02-.39,.03Z"/>
    <path class="cls-4" d="M315.73,30.64c0,.62-.23,1.14-.52,1.64-.32,.57-.73,1.08-1.34,1.38-.4,.2-.79,.19-1.14-.1-.31-.26-.4-.63-.33-1.02,.14-.82,.54-1.53,1.06-2.17,.22-.27,.47-.49,.77-.64,.76-.37,1.63,.14,1.5,.91Z"/>
    <path class="cls-2" d="M323.71,38.48c-.03,.54-.24,.98-.56,1.35-.65,.75-1.42,1.34-2.39,1.64-.46,.14-.87,.09-1.21-.28-.23-.25-.26-.4-.12-.73,.18-.42,.51-.73,.84-1.01,.7-.6,1.43-1.18,2.23-1.66,.6-.35,1.22,.02,1.21,.69Z"/>
    <path class="cls-2" d="M346.04,19.05c-.4,.01-.68-.16-.86-.5-.19-.36-.12-.68,.1-1,.29-.41,.7-.7,1.09-.99,.53-.38,1.05-.8,1.68-1.03,.32-.12,.62-.14,.87,.1,.29,.28,.38,.63,.28,1.03-.09,.36-.3,.65-.55,.9-.57,.56-1.2,1.05-1.96,1.35-.22,.09-.44,.16-.67,.14Z"/>
    <path class="cls-2" d="M325.75,37.71c-.72-.05-1.09-.67-.8-1.34,.1-.23,.23-.43,.39-.61,.58-.63,1.16-1.28,1.95-1.65,.25-.12,.51-.18,.78-.11,.44,.11,.71,.58,.62,1.02-.09,.46-.35,.83-.65,1.17-.48,.55-1.02,1.04-1.67,1.38-.19,.1-.4,.16-.62,.14Z"/>
    <path class="cls-2" d="M331.39,27.26c.01,.55-.19,1.04-.49,1.48-.4,.6-.9,1.07-1.57,1.37-.51,.23-1.04,.14-1.33-.21-.16-.19-.18-.4-.12-.63,.12-.45,.39-.81,.68-1.16,.41-.5,.8-1.02,1.29-1.47,.12-.11,.25-.21,.4-.29,.57-.3,1.12,0,1.16,.66,0,.09,0,.17,0,.26Z"/>
    <path class="cls-2" d="M350.28,11.85c-.61,0-.97-.49-.8-1.06,.13-.42,.41-.74,.67-1.07,.42-.54,.85-1.07,1.3-1.59,.21-.25,.47-.45,.82-.43,.46,.03,.74,.37,.73,.91-.02,.64-.23,1.22-.6,1.74-.45,.63-.98,1.17-1.73,1.44-.13,.05-.27,.08-.38,.06Z"/>
    <path class="cls-2" d="M324.5,34.06c0,.22-.16,.53-.39,.8-.6,.69-1.29,1.26-2.18,1.55-.4,.13-.79,.15-1.13-.14-.39-.33-.43-.82-.11-1.26,.23-.32,.53-.55,.83-.78,.54-.41,1.03-.88,1.65-1.17,.68-.31,1.33,.1,1.33,1Z"/>
    <path class="cls-2" d="M356.97,8.31c-.08,.98-.28,1.92-.9,2.72-.17,.22-.38,.38-.63,.49-.36,.16-.67,.04-.94-.19-.27-.24-.33-.57-.21-.88,.31-.86,.62-1.71,.9-2.58,.04-.13,.13-.25,.2-.36,.2-.32,.52-.43,.88-.39,.36,.04,.56,.29,.64,.63,.04,.19,.1,.37,.07,.57Z"/>
    <path class="cls-2" d="M350.29,15.23c0-.45,.25-.78,.51-1.11,.46-.59,.97-1.13,1.61-1.54,.15-.09,.3-.18,.47-.22,.29-.08,.58-.08,.8,.14,.22,.23,.31,.5,.24,.83-.09,.45-.34,.82-.62,1.16-.39,.46-.8,.89-1.31,1.22-.28,.18-.58,.32-.92,.32-.46,0-.78-.34-.78-.8Z"/>
    <path class="cls-2" d="M316.27,41.03c.22-.01,.42,.04,.62,.11,.52,.18,.73,.66,.51,1.16-.14,.32-.36,.57-.66,.74-.67,.39-1.39,.63-2.18,.5-.36-.06-.62-.27-.73-.63-.11-.35-.02-.67,.23-.91,.62-.59,1.36-.9,2.21-.98Z"/>
  </g>
</svg>